<svg id="visual" viewBox="0 0 900 600" width="900" height="600" xmlns="http://www.w3.org/2000/svg" xmlns:xlink="http://www.w3.org/1999/xlink" version="1.1"><rect x="0" y="0" width="900" height="600" fill="#14161a"></rect><path d="M0 250L10.7 240.2C21.3 230.3 42.7 210.7 64.2 232C85.7 253.3 107.3 315.7 128.8 330.8C150.3 346 171.7 314 193 291.8C214.3 269.7 235.7 257.3 257 261.3C278.3 265.3 299.7 285.7 321.2 314.2C342.7 342.7 364.3 379.3 385.8 392.8C407.3 406.3 428.7 396.7 450 385.2C471.3 373.7 492.7 360.3 514.2 342.7C535.7 325 557.3 303 578.8 309.2C600.3 315.3 621.7 349.7 643 364.7C664.3 379.7 685.7 375.3 707 363.8C728.3 352.3 749.7 333.7 771.2 337.2C792.7 340.7 814.3 366.3 835.8 364.8C857.3 363.3 878.7 334.7 889.3 320.3L900 306L900 601L889.3 601C878.7 601 857.3 601 835.8 601C814.3 601 792.7 601 771.2 601C749.7 601 728.3 601 707 601C685.7 601 664.3 601 643 601C621.7 601 600.3 601 578.8 601C557.3 601 535.7 601 514.2 601C492.7 601 471.3 601 450 601C428.7 601 407.3 601 385.8 601C364.3 601 342.7 601 321.2 601C299.7 601 278.3 601 257 601C235.7 601 214.3 601 193 601C171.7 601 150.3 601 128.8 601C107.3 601 85.7 601 64.2 601C42.7 601 21.3 601 10.7 601L0 601Z" fill="#c2c9ff" stroke-linecap="round" stroke-linejoin="miter"></path></svg>